<?xml version="1.0" encoding="UTF-8"?>
<!DOCTYPE svg PUBLIC "-//W3C//DTD SVG 1.1//EN" "http://www.w3.org/Graphics/SVG/1.1/DTD/svg11.dtd">
<svg xmlns="http://www.w3.org/2000/svg" version="1.1" width="512px" height="512px" style="shape-rendering:geometricPrecision; text-rendering:geometricPrecision; image-rendering:optimizeQuality; fill-rule:evenodd; clip-rule:evenodd" xmlns:xlink="http://www.w3.org/1999/xlink">
<g><path style="opacity:1" fill="#fdc346" d="M 261.5,53.5 C 256.447,54.1254 251.447,55.2921 246.5,57C 246.167,57.3333 245.833,57.6667 245.5,58C 250.508,58.8693 250.175,59.5359 244.5,60C 252.5,60.3333 260.5,60.6667 268.5,61C 267.789,62.2547 266.956,63.4214 266,64.5C 264.186,63.2404 262.353,63.2404 260.5,64.5C 258.957,67.086 257.291,69.586 255.5,72C 253.833,72.3333 252.167,72.6667 250.5,73C 249.039,75.4206 247.706,77.9206 246.5,80.5C 244.922,81.2978 243.256,81.7978 241.5,82C 239.873,84.7542 238.373,87.5875 237,90.5C 235.601,91.2266 234.101,91.7266 232.5,92C 233.833,92.3333 235.167,92.6667 236.5,93C 233.685,95.5206 234.018,97.1873 237.5,98C 236.167,98.3333 234.833,98.6667 233.5,99C 237.431,99.403 238.431,101.236 236.5,104.5C 230.676,104.347 230.343,105.013 235.5,106.5C 236.718,107.803 236.385,108.803 234.5,109.5C 235.5,110.167 236.5,110.833 237.5,111.5C 237.457,113.561 236.791,115.728 235.5,118C 238.167,118.667 238.167,119.333 235.5,120C 236.357,120.689 237.023,121.522 237.5,122.5C 237.368,123.963 237.035,125.463 236.5,127C 237.056,128.011 237.722,128.844 238.5,129.5C 236.088,129.694 235.088,131.027 235.5,133.5C 240.794,133.682 240.794,134.182 235.5,135C 236.833,135.333 238.167,135.667 239.5,136C 237.807,137.347 236.14,137.847 234.5,137.5C 239.721,138.624 239.721,139.458 234.5,140C 239.833,141 239.833,142 234.5,143C 238.185,143.914 237.852,144.581 233.5,145C 234.938,145.219 236.271,145.719 237.5,146.5C 236.359,147.425 236.359,148.259 237.5,149C 232.279,149.542 232.279,150.376 237.5,151.5C 232.279,152.624 232.279,153.458 237.5,154C 232.379,154.577 232.379,155.577 237.5,157C 232.167,157.667 232.167,158.333 237.5,159C 236.167,159.333 234.833,159.667 233.5,160C 237.5,161 237.5,162 233.5,163C 237.5,163.667 237.5,164.333 233.5,165C 238.833,166 238.833,167 233.5,168C 236.615,168.493 238.281,170.326 238.5,173.5C 234.611,173.376 231.278,174.709 228.5,177.5C 227.494,177.062 227.494,176.396 228.5,175.5C 227.271,174.719 225.938,174.219 224.5,174C 225.308,173.692 225.975,173.192 226.5,172.5C 225.271,171.719 223.938,171.219 222.5,171C 226.361,170.431 226.361,169.598 222.5,168.5C 223.025,167.808 223.692,167.308 224.5,167C 223.167,166.667 221.833,166.333 220.5,166C 221.167,165.667 221.833,165.333 222.5,165C 218.068,164.377 217.735,163.377 221.5,162C 218.332,161.418 217.999,160.418 220.5,159C 218.5,158 216.5,157 214.5,156C 215.833,155.333 217.167,154.667 218.5,154C 216.226,153.53 214.226,152.53 212.5,151C 213.308,150.692 213.975,150.192 214.5,149.5C 213.271,148.719 211.938,148.219 210.5,148C 211.833,147.333 213.167,146.667 214.5,146C 213.552,145.517 212.552,145.351 211.5,145.5C 211.5,143.833 211.5,142.167 211.5,140.5C 206.318,140.443 206.318,139.776 211.5,138.5C 210.397,138.002 209.397,137.669 208.5,137.5C 213.73,136.075 213.73,134.909 208.5,134C 213.621,132.577 213.621,131.577 208.5,131C 209.5,130.667 210.5,130.333 211.5,130C 210.027,129.29 209.36,128.124 209.5,126.5C 205.551,126.307 205.551,125.807 209.5,125C 208.062,124.781 206.729,124.281 205.5,123.5C 207.167,122.833 208.833,122.167 210.5,121.5C 209.167,121.167 207.833,120.833 206.5,120.5C 208.078,119.702 209.744,119.202 211.5,119C 204.833,118 204.833,117 211.5,116C 210.207,115.51 208.873,115.343 207.5,115.5C 207.421,114.07 207.754,112.736 208.5,111.5C 207.271,110.719 205.938,110.219 204.5,110C 210.117,108.971 210.45,108.138 205.5,107.5C 205.534,103.691 207.534,101.857 211.5,102C 206.437,100.672 206.771,99.6715 212.5,99C 211.207,98.51 209.873,98.3433 208.5,98.5C 208.756,96.0628 209.423,93.7294 210.5,91.5C 212.567,90.8659 214.4,89.8659 216,88.5C 216.897,85.7076 218.063,83.0409 219.5,80.5C 221.382,79.9067 223.215,79.2401 225,78.5C 227,74.5 229,70.5 231,66.5C 233.725,65.358 236.225,63.858 238.5,62C 231.359,61.9824 224.359,63.1491 217.5,65.5C 216.584,65.4573 215.917,65.1239 215.5,64.5C 217.637,63.2126 219.97,62.3793 222.5,62C 221.167,61.3333 219.833,60.6667 218.5,60C 221.306,59.3949 223.64,58.0616 225.5,56C 222.71,56.6475 220.044,56.4808 217.5,55.5C 232.114,53.8827 246.781,53.2161 261.5,53.5 Z"/></g>
<g><path style="opacity:1" fill="#febc42" d="M 238.5,173.5 C 239.931,175.268 241.597,175.935 243.5,175.5C 242.757,176.182 242.091,176.849 241.5,177.5C 240.391,178.29 239.058,178.79 237.5,179C 238.167,179.333 238.833,179.667 239.5,180C 237.833,180.333 236.167,180.667 234.5,181C 236.767,181.276 239.1,181.943 241.5,183C 238.456,183.359 238.122,184.026 240.5,185C 237.007,186.088 236.841,187.255 240,188.5C 241.342,187.098 242.176,187.431 242.5,189.5C 241.813,191.177 241.146,192.844 240.5,194.5C 222.308,199.699 208.975,210.699 200.5,227.5C 196.921,233.24 194.921,239.573 194.5,246.5C 193.505,258.655 193.171,270.989 193.5,283.5C 192.732,282.737 192.232,281.737 192,280.5C 191.667,281.5 191.333,282.5 191,283.5C 190.691,282.234 190.191,281.067 189.5,280C 191.158,279.275 191.658,278.108 191,276.5C 189.43,277.614 188.097,278.947 187,280.5C 186.667,279.167 186.333,277.833 186,276.5C 185.308,277.025 184.808,277.692 184.5,278.5C 185.939,280.343 185.772,282.01 184,283.5C 183.667,282.5 183.333,281.5 183,280.5C 182.804,282.286 181.971,283.619 180.5,284.5C 179.833,287.977 179.166,291.311 178.5,294.5C 178.5,255.5 178.5,216.5 178.5,177.5C 183.747,177.213 187.747,174.88 190.5,170.5C 193.198,166.637 194.031,162.304 193,157.5C 189.561,147.928 183.727,140.261 175.5,134.5C 175.36,132.876 176.027,131.71 177.5,131C 175.169,129.2 175.169,127.2 177.5,125C 176.075,123.286 176.408,121.953 178.5,121C 178.292,117.675 177.959,114.342 177.5,111C 180.473,108.272 183.306,105.439 186,102.5C 186.346,100.782 186.846,99.1151 187.5,97.5C 186.975,96.8076 186.308,96.3076 185.5,96C 186.624,95.7508 187.624,95.2508 188.5,94.5C 187.091,94.3459 185.424,94.1792 183.5,94C 185.25,92.6814 187.25,92.1814 189.5,92.5C 189.534,87.084 192.034,83.4173 197,81.5C 198.528,78.5833 199.861,75.5833 201,72.5C 203.724,71.3117 206.057,69.645 208,67.5C 209.049,68.5171 210.216,68.6838 211.5,68C 210.833,67.6667 210.167,67.3333 209.5,67C 211.628,66.3448 213.628,65.5114 215.5,64.5C 215.917,65.1239 216.584,65.4573 217.5,65.5C 224.359,63.1491 231.359,61.9824 238.5,62C 236.225,63.858 233.725,65.358 231,66.5C 229,70.5 227,74.5 225,78.5C 223.215,79.2401 221.382,79.9067 219.5,80.5C 218.063,83.0409 216.897,85.7076 216,88.5C 214.4,89.8659 212.567,90.8659 210.5,91.5C 209.423,93.7294 208.756,96.0628 208.5,98.5C 209.873,98.3433 211.207,98.51 212.5,99C 206.771,99.6715 206.437,100.672 211.5,102C 207.534,101.857 205.534,103.691 205.5,107.5C 210.45,108.138 210.117,108.971 204.5,110C 205.938,110.219 207.271,110.719 208.5,111.5C 207.754,112.736 207.421,114.07 207.5,115.5C 208.873,115.343 210.207,115.51 211.5,116C 204.833,117 204.833,118 211.5,119C 209.744,119.202 208.078,119.702 206.5,120.5C 207.833,120.833 209.167,121.167 210.5,121.5C 208.833,122.167 207.167,122.833 205.5,123.5C 206.729,124.281 208.062,124.781 209.5,125C 205.551,125.807 205.551,126.307 209.5,126.5C 209.36,128.124 210.027,129.29 211.5,130C 210.5,130.333 209.5,130.667 208.5,131C 213.621,131.577 213.621,132.577 208.5,134C 213.73,134.909 213.73,136.075 208.5,137.5C 209.397,137.669 210.397,138.002 211.5,138.5C 206.318,139.776 206.318,140.443 211.5,140.5C 211.5,142.167 211.5,143.833 211.5,145.5C 212.552,145.351 213.552,145.517 214.5,146C 213.167,146.667 211.833,147.333 210.5,148C 211.938,148.219 213.271,148.719 214.5,149.5C 213.975,150.192 213.308,150.692 212.5,151C 214.226,152.53 216.226,153.53 218.5,154C 217.167,154.667 215.833,155.333 214.5,156C 216.5,157 218.5,158 220.5,159C 217.999,160.418 218.332,161.418 221.5,162C 217.735,163.377 218.068,164.377 222.5,165C 221.833,165.333 221.167,165.667 220.5,166C 221.833,166.333 223.167,166.667 224.5,167C 223.692,167.308 223.025,167.808 222.5,168.5C 226.361,169.598 226.361,170.431 222.5,171C 223.938,171.219 225.271,171.719 226.5,172.5C 225.975,173.192 225.308,173.692 224.5,174C 225.938,174.219 227.271,174.719 228.5,175.5C 227.494,176.396 227.494,177.062 228.5,177.5C 231.278,174.709 234.611,173.376 238.5,173.5 Z"/></g>
<g><path style="opacity:1" fill="#fdca4e" d="M 261.5,53.5 C 280.369,53.6921 299.036,55.6921 317.5,59.5C 317.315,61.1958 316.481,62.5291 315,63.5C 311.822,61.833 309.322,62.4997 307.5,65.5C 306.484,67.7351 305.151,67.7351 303.5,65.5C 301.617,65.8757 300.117,66.8757 299,68.5C 295.133,66.7443 292.133,67.7443 290,71.5C 289.127,71.2645 288.293,70.9312 287.5,70.5C 284.644,72.522 282.311,75.022 280.5,78C 278.833,78.3333 277.167,78.6667 275.5,79C 271.367,84.7605 267.867,90.9272 265,97.5C 262.176,98.8333 262.343,100.333 265.5,102C 261.544,103.114 261.544,103.947 265.5,104.5C 264.862,106.46 264.862,108.293 265.5,110C 262.949,111.516 263.282,112.349 266.5,112.5C 266.714,114.144 266.38,115.644 265.5,117C 266.833,118 268.167,119 269.5,120C 269.032,121.822 268.699,123.989 268.5,126.5C 269.5,126.5 270.5,126.5 271.5,126.5C 271.643,128.262 271.309,129.929 270.5,131.5C 271.381,132.971 272.714,133.804 274.5,134C 274.335,135.117 274.002,136.284 273.5,137.5C 275.762,141.455 277.928,145.455 280,149.5C 281.049,148.483 282.216,148.316 283.5,149C 281.205,149.984 281.539,150.817 284.5,151.5C 285.768,150.572 287.101,150.405 288.5,151C 292.841,153.395 297.174,155.728 301.5,158C 300.833,158.333 300.167,158.667 299.5,159C 302.057,160.119 304.557,160.285 307,159.5C 307.49,160.793 307.657,162.127 307.5,163.5C 309.541,163.854 311.374,163.854 313,163.5C 314.4,164.748 315.9,165.748 317.5,166.5C 318.5,167.833 319.5,169.167 320.5,170.5C 323.178,174.847 327.178,177.181 332.5,177.5C 332.5,181.833 332.5,186.167 332.5,190.5C 329.821,190.475 328.488,189.142 328.5,186.5C 325.343,186.437 322.509,185.437 320,183.5C 317.299,184.193 315.132,183.193 313.5,180.5C 310.856,179.604 308.19,178.771 305.5,178C 306.5,177.667 307.5,177.333 308.5,177C 306.899,176.727 305.399,176.227 304,175.5C 301.601,175.972 299.601,174.972 298,172.5C 296.605,173.43 295.105,173.43 293.5,172.5C 291.338,170.657 289.004,168.99 286.5,167.5C 285.833,167.833 285.167,168.167 284.5,168.5C 283.304,168.154 283.304,167.654 284.5,167C 282.913,166.138 281.246,165.471 279.5,165C 280.167,164.667 280.833,164.333 281.5,164C 279.5,163.333 277.5,163.333 275.5,164C 276.5,164.333 277.5,164.667 278.5,165C 275.044,165.855 272.544,164.689 271,161.5C 270.439,162.022 269.772,162.355 269,162.5C 264.323,160.147 259.49,159.314 254.5,160C 255.167,159.667 255.833,159.333 256.5,159C 254.5,158.167 252.5,157.333 250.5,156.5C 251.582,156.251 252.915,156.085 254.5,156C 251.93,154.621 249.596,152.954 247.5,151C 248.833,150.667 250.167,150.333 251.5,150C 249.998,149.417 248.665,148.584 247.5,147.5C 248.833,146.5 248.833,145.5 247.5,144.5C 242.326,142.73 242.659,141.563 248.5,141C 245.659,139.938 242.992,138.604 240.5,137C 245.379,136.889 245.712,135.722 241.5,133.5C 242.534,130.943 241.534,129.609 238.5,129.5C 237.722,128.844 237.056,128.011 236.5,127C 237.035,125.463 237.368,123.963 237.5,122.5C 237.023,121.522 236.357,120.689 235.5,120C 238.167,119.333 238.167,118.667 235.5,118C 236.791,115.728 237.457,113.561 237.5,111.5C 236.5,110.833 235.5,110.167 234.5,109.5C 236.385,108.803 236.718,107.803 235.5,106.5C 230.343,105.013 230.676,104.347 236.5,104.5C 238.431,101.236 237.431,99.403 233.5,99C 234.833,98.6667 236.167,98.3333 237.5,98C 234.018,97.1873 233.685,95.5206 236.5,93C 235.167,92.6667 233.833,92.3333 232.5,92C 234.101,91.7266 235.601,91.2266 237,90.5C 238.373,87.5875 239.873,84.7542 241.5,82C 243.256,81.7978 244.922,81.2978 246.5,80.5C 247.706,77.9206 249.039,75.4206 250.5,73C 252.167,72.6667 253.833,72.3333 255.5,72C 257.291,69.586 258.957,67.086 260.5,64.5C 262.353,63.2404 264.186,63.2404 266,64.5C 266.956,63.4214 267.789,62.2547 268.5,61C 260.5,60.6667 252.5,60.3333 244.5,60C 250.175,59.5359 250.508,58.8693 245.5,58C 245.833,57.6667 246.167,57.3333 246.5,57C 251.447,55.2921 256.447,54.1254 261.5,53.5 Z"/></g>
<g><path style="opacity:1" fill="#fed154" d="M 307.5,65.5 C 316.258,66.6981 324.591,69.1981 332.5,73C 330.965,73.4962 329.465,73.3295 328,72.5C 327.894,73.7939 326.894,74.4606 325,74.5C 323.893,74.4148 322.893,74.0814 322,73.5C 321.311,74.3567 320.478,75.0233 319.5,75.5C 317.902,74.5153 316.235,74.3486 314.5,75C 312.676,79.4862 309.343,81.4862 304.5,81C 297.125,89.5714 291.125,99.0714 286.5,109.5C 287.263,110.719 288.263,111.719 289.5,112.5C 287.724,113.315 287.057,114.482 287.5,116C 289.002,116.583 290.335,117.416 291.5,118.5C 290.167,118.5 288.833,118.5 287.5,118.5C 289.762,119.345 290.429,120.678 289.5,122.5C 290.665,123.584 291.998,124.417 293.5,125C 292.833,125.333 292.167,125.667 291.5,126C 293.191,128.87 294.524,131.537 295.5,134C 294.446,135.388 294.28,136.888 295,138.5C 296.74,139.716 297.74,141.382 298,143.5C 299.049,142.483 300.216,142.316 301.5,143C 300.833,143.333 300.167,143.667 299.5,144C 300.931,144.465 302.097,145.299 303,146.5C 303.333,146.167 303.667,145.833 304,145.5C 305.325,147.993 307.491,149.16 310.5,149C 309.833,149.333 309.167,149.667 308.5,150C 309.966,150.635 311.3,151.469 312.5,152.5C 313.086,152.291 313.586,151.957 314,151.5C 314.903,152.701 316.069,153.535 317.5,154C 315.068,155.087 315.402,155.587 318.5,155.5C 317.656,159.099 317.323,162.766 317.5,166.5C 315.9,165.748 314.4,164.748 313,163.5C 311.374,163.854 309.541,163.854 307.5,163.5C 307.657,162.127 307.49,160.793 307,159.5C 304.557,160.285 302.057,160.119 299.5,159C 300.167,158.667 300.833,158.333 301.5,158C 297.174,155.728 292.841,153.395 288.5,151C 287.101,150.405 285.768,150.572 284.5,151.5C 281.539,150.817 281.205,149.984 283.5,149C 282.216,148.316 281.049,148.483 280,149.5C 277.928,145.455 275.762,141.455 273.5,137.5C 274.002,136.284 274.335,135.117 274.5,134C 272.714,133.804 271.381,132.971 270.5,131.5C 271.309,129.929 271.643,128.262 271.5,126.5C 270.5,126.5 269.5,126.5 268.5,126.5C 268.699,123.989 269.032,121.822 269.5,120C 268.167,119 266.833,118 265.5,117C 266.38,115.644 266.714,114.144 266.5,112.5C 263.282,112.349 262.949,111.516 265.5,110C 264.862,108.293 264.862,106.46 265.5,104.5C 261.544,103.947 261.544,103.114 265.5,102C 262.343,100.333 262.176,98.8333 265,97.5C 267.867,90.9272 271.367,84.7605 275.5,79C 277.167,78.6667 278.833,78.3333 280.5,78C 282.311,75.022 284.644,72.522 287.5,70.5C 288.293,70.9312 289.127,71.2645 290,71.5C 292.133,67.7443 295.133,66.7443 299,68.5C 300.117,66.8757 301.617,65.8757 303.5,65.5C 305.151,67.7351 306.484,67.7351 307.5,65.5 Z"/></g>
<g><path style="opacity:1" fill="#fab536" d="M 217.5,55.5 C 220.044,56.4808 222.71,56.6475 225.5,56C 223.64,58.0616 221.306,59.3949 218.5,60C 219.833,60.6667 221.167,61.3333 222.5,62C 219.97,62.3793 217.637,63.2126 215.5,64.5C 213.628,65.5114 211.628,66.3448 209.5,67C 210.167,67.3333 210.833,67.6667 211.5,68C 210.216,68.6838 209.049,68.5171 208,67.5C 206.057,69.645 203.724,71.3117 201,72.5C 199.861,75.5833 198.528,78.5833 197,81.5C 192.034,83.4173 189.534,87.084 189.5,92.5C 187.25,92.1814 185.25,92.6814 183.5,94C 185.424,94.1792 187.091,94.3459 188.5,94.5C 187.624,95.2508 186.624,95.7508 185.5,96C 186.308,96.3076 186.975,96.8076 187.5,97.5C 186.846,99.1151 186.346,100.782 186,102.5C 183.306,105.439 180.473,108.272 177.5,111C 177.959,114.342 178.292,117.675 178.5,121C 176.408,121.953 176.075,123.286 177.5,125C 175.169,127.2 175.169,129.2 177.5,131C 176.027,131.71 175.36,132.876 175.5,134.5C 162.145,125.828 147.479,122.161 131.5,123.5C 132.301,120.186 134.134,117.52 137,115.5C 138.207,109.799 139.54,104.132 141,98.5C 143.167,96.3333 145.333,94.1667 147.5,92C 147.167,91.6667 146.833,91.3333 146.5,91C 150.306,89.0141 153.639,86.5141 156.5,83.5C 157.603,80.0637 159.936,78.0637 163.5,77.5C 164.5,76.1667 165.5,74.8333 166.5,73.5C 172.663,71.5908 177.996,68.4242 182.5,64C 181.944,63.6174 181.611,63.1174 181.5,62.5C 193.346,59.3976 205.346,57.0642 217.5,55.5 Z"/></g>
<g><path style="opacity:1" fill="#fdd659" d="M 317.5,59.5 C 336.482,64.1573 354.482,71.1573 371.5,80.5C 370.132,81.3063 368.799,82.3063 367.5,83.5C 364.638,83.12 361.638,82.62 358.5,82C 362.512,84.1065 362.179,85.6065 357.5,86.5C 352.899,85.8672 348.232,84.5338 343.5,82.5C 341.641,84.1924 339.641,85.6924 337.5,87C 335.5,87 333.5,87 331.5,87C 321.512,97.311 313.512,108.978 307.5,122C 310.389,123.317 311.056,125.317 309.5,128C 312.353,129.751 313.02,132.084 311.5,135C 313.607,136.264 314.607,138.097 314.5,140.5C 317.028,142.435 320.361,144.102 324.5,145.5C 322.863,149.118 320.863,152.451 318.5,155.5C 315.402,155.587 315.068,155.087 317.5,154C 316.069,153.535 314.903,152.701 314,151.5C 313.586,151.957 313.086,152.291 312.5,152.5C 311.3,151.469 309.966,150.635 308.5,150C 309.167,149.667 309.833,149.333 310.5,149C 307.491,149.16 305.325,147.993 304,145.5C 303.667,145.833 303.333,146.167 303,146.5C 302.097,145.299 300.931,144.465 299.5,144C 300.167,143.667 300.833,143.333 301.5,143C 300.216,142.316 299.049,142.483 298,143.5C 297.74,141.382 296.74,139.716 295,138.5C 294.28,136.888 294.446,135.388 295.5,134C 294.524,131.537 293.191,128.87 291.5,126C 292.167,125.667 292.833,125.333 293.5,125C 291.998,124.417 290.665,123.584 289.5,122.5C 290.429,120.678 289.762,119.345 287.5,118.5C 288.833,118.5 290.167,118.5 291.5,118.5C 290.335,117.416 289.002,116.583 287.5,116C 287.057,114.482 287.724,113.315 289.5,112.5C 288.263,111.719 287.263,110.719 286.5,109.5C 291.125,99.0714 297.125,89.5714 304.5,81C 309.343,81.4862 312.676,79.4862 314.5,75C 316.235,74.3486 317.902,74.5153 319.5,75.5C 320.478,75.0233 321.311,74.3567 322,73.5C 322.893,74.0814 323.893,74.4148 325,74.5C 326.894,74.4606 327.894,73.7939 328,72.5C 329.465,73.3295 330.965,73.4962 332.5,73C 324.591,69.1981 316.258,66.6981 307.5,65.5C 309.322,62.4997 311.822,61.833 315,63.5C 316.481,62.5291 317.315,61.1958 317.5,59.5 Z"/></g>
<g><path style="opacity:1" fill="#fde164" d="M 371.5,80.5 C 419.276,107.674 449.943,148.008 463.5,201.5C 461.277,204.911 458.777,208.244 456,211.5C 455.333,210.167 454.667,210.167 454,211.5C 452.579,208.378 450.913,208.044 449,210.5C 448.333,207.833 447.667,207.833 447,210.5C 445.212,209.642 443.378,208.642 441.5,207.5C 440.914,207.709 440.414,208.043 440,208.5C 438.789,204.538 436.789,203.871 434,206.5C 429.847,205.029 426.18,202.696 423,199.5C 420.909,200.5 419.243,199.833 418,197.5C 417.586,197.957 417.086,198.291 416.5,198.5C 414.757,196.962 412.757,195.962 410.5,195.5C 410.5,191.5 410.5,187.5 410.5,183.5C 412.044,183.703 413.378,184.37 414.5,185.5C 415.425,184.359 416.259,184.359 417,185.5C 417.333,184.833 417.667,184.167 418,183.5C 419.243,185.833 420.909,186.5 423,185.5C 426.49,186.844 430.157,188.511 434,190.5C 435.566,189.939 436.899,190.606 438,192.5C 439,191.5 440,190.5 441,189.5C 441.419,190.672 442.085,191.672 443,192.5C 447.704,188.333 448.871,183.499 446.5,178C 447.104,175.476 447.771,172.976 448.5,170.5C 445.418,161.438 441.585,152.438 437,143.5C 428.944,132.071 418.444,123.904 405.5,119C 403.985,116.377 401.985,115.377 399.5,116C 398.5,115 397.5,114 396.5,113C 387.992,113.08 380.325,115.746 373.5,121C 372.748,121.671 372.414,122.504 372.5,123.5C 352.913,123.297 336.913,130.631 324.5,145.5C 320.361,144.102 317.028,142.435 314.5,140.5C 314.607,138.097 313.607,136.264 311.5,135C 313.02,132.084 312.353,129.751 309.5,128C 311.056,125.317 310.389,123.317 307.5,122C 313.512,108.978 321.512,97.311 331.5,87C 333.5,87 335.5,87 337.5,87C 339.641,85.6924 341.641,84.1924 343.5,82.5C 348.232,84.5338 352.899,85.8672 357.5,86.5C 362.179,85.6065 362.512,84.1065 358.5,82C 361.638,82.62 364.638,83.12 367.5,83.5C 368.799,82.3063 370.132,81.3063 371.5,80.5 Z"/></g>
<g><path style="opacity:1" fill="#f4a72f" d="M 181.5,62.5 C 181.611,63.1174 181.944,63.6174 182.5,64C 177.996,68.4242 172.663,71.5908 166.5,73.5C 165.5,74.8333 164.5,76.1667 163.5,77.5C 159.936,78.0637 157.603,80.0637 156.5,83.5C 153.639,86.5141 150.306,89.0141 146.5,91C 146.833,91.3333 147.167,91.6667 147.5,92C 145.333,94.1667 143.167,96.3333 141,98.5C 139.54,104.132 138.207,109.799 137,115.5C 134.134,117.52 132.301,120.186 131.5,123.5C 122.321,124.743 113.655,127.743 105.5,132.5C 104.957,132.44 104.624,132.107 104.5,131.5C 105.875,127.372 107.208,123.205 108.5,119C 108.167,118.667 107.833,118.333 107.5,118C 109.434,113.208 111.934,108.708 115,104.5C 115.373,102.302 115.873,100.135 116.5,98C 116.43,97.2352 116.097,96.7352 115.5,96.5C 135.176,80.9931 157.176,69.6598 181.5,62.5 Z"/></g>
<g><path style="opacity:1" fill="#fce86d" d="M 410.5,183.5 C 410.5,181.5 410.5,179.5 410.5,177.5C 415.611,177.611 419.611,175.611 422.5,171.5C 425.296,166.96 426.129,161.96 425,156.5C 414.204,135.01 396.704,124.01 372.5,123.5C 372.414,122.504 372.748,121.671 373.5,121C 380.325,115.746 387.992,113.08 396.5,113C 397.5,114 398.5,115 399.5,116C 401.985,115.377 403.985,116.377 405.5,119C 418.444,123.904 428.944,132.071 437,143.5C 441.585,152.438 445.418,161.438 448.5,170.5C 447.771,172.976 447.104,175.476 446.5,178C 448.871,183.499 447.704,188.333 443,192.5C 442.085,191.672 441.419,190.672 441,189.5C 440,190.5 439,191.5 438,192.5C 436.899,190.606 435.566,189.939 434,190.5C 430.157,188.511 426.49,186.844 423,185.5C 420.909,186.5 419.243,185.833 418,183.5C 417.667,184.167 417.333,184.833 417,185.5C 416.259,184.359 415.425,184.359 414.5,185.5C 413.378,184.37 412.044,183.703 410.5,183.5 Z"/></g>
<g><path style="opacity:1" fill="#4f372d" d="M 131.5,123.5 C 147.479,122.161 162.145,125.828 175.5,134.5C 183.727,140.261 189.561,147.928 193,157.5C 194.031,162.304 193.198,166.637 190.5,170.5C 184.599,142.93 167.599,128.263 139.5,126.5C 111.401,128.263 94.4013,142.93 88.5,170.5C 87.0337,169.653 86.2004,168.32 86,166.5C 85.3333,163.167 85.3333,159.833 86,156.5C 90.5009,146.837 97.0009,138.837 105.5,132.5C 113.655,127.743 122.321,124.743 131.5,123.5 Z"/></g>
<g><path style="opacity:1" fill="#50392f" d="M 372.5,123.5 C 396.704,124.01 414.204,135.01 425,156.5C 426.129,161.96 425.296,166.96 422.5,171.5C 419.028,149.524 406.695,135.024 385.5,128C 350.91,122.618 329.243,136.784 320.5,170.5C 319.5,169.167 318.5,167.833 317.5,166.5C 317.323,162.766 317.656,159.099 318.5,155.5C 320.863,152.451 322.863,149.118 324.5,145.5C 336.913,130.631 352.913,123.297 372.5,123.5 Z"/></g>
<g><path style="opacity:1" fill="#ffc44f" d="M 238.5,129.5 C 241.534,129.609 242.534,130.943 241.5,133.5C 245.712,135.722 245.379,136.889 240.5,137C 242.992,138.604 245.659,139.938 248.5,141C 242.659,141.563 242.326,142.73 247.5,144.5C 248.833,145.5 248.833,146.5 247.5,147.5C 248.665,148.584 249.998,149.417 251.5,150C 250.167,150.333 248.833,150.667 247.5,151C 249.596,152.954 251.93,154.621 254.5,156C 252.915,156.085 251.582,156.251 250.5,156.5C 252.5,157.333 254.5,158.167 256.5,159C 255.833,159.333 255.167,159.667 254.5,160C 259.49,159.314 264.323,160.147 269,162.5C 269.772,162.355 270.439,162.022 271,161.5C 272.544,164.689 275.044,165.855 278.5,165C 277.5,164.667 276.5,164.333 275.5,164C 277.5,163.333 279.5,163.333 281.5,164C 280.833,164.333 280.167,164.667 279.5,165C 281.246,165.471 282.913,166.138 284.5,167C 283.304,167.654 283.304,168.154 284.5,168.5C 285.167,168.167 285.833,167.833 286.5,167.5C 289.004,168.99 291.338,170.657 293.5,172.5C 295.105,173.43 296.605,173.43 298,172.5C 299.601,174.972 301.601,175.972 304,175.5C 305.399,176.227 306.899,176.727 308.5,177C 307.5,177.333 306.5,177.667 305.5,178C 308.19,178.771 310.856,179.604 313.5,180.5C 315.132,183.193 317.299,184.193 320,183.5C 322.509,185.437 325.343,186.437 328.5,186.5C 328.488,189.142 329.821,190.475 332.5,190.5C 332.5,194.5 332.5,198.5 332.5,202.5C 328.632,201.153 324.632,199.986 320.5,199C 319.667,198.167 318.833,197.333 318,196.5C 316.951,197.517 315.784,197.684 314.5,197C 312.802,194.052 310.469,192.885 307.5,193.5C 305.932,191.8 304.099,190.466 302,189.5C 301.667,189.833 301.333,190.167 301,190.5C 298.159,189.58 295.326,188.58 292.5,187.5C 289.987,188.712 288.487,187.712 288,184.5C 287.439,185.022 286.772,185.355 286,185.5C 283.18,184.423 280.514,183.09 278,181.5C 273.241,182.235 268.741,181.235 264.5,178.5C 263.158,179.902 262.324,179.569 262,177.5C 259.506,179.901 257.173,179.901 255,177.5C 253.612,178.554 252.112,178.72 250.5,178C 251.451,177.282 251.617,176.449 251,175.5C 249.445,177.146 247.779,177.479 246,176.5C 245.751,177.624 245.251,178.624 244.5,179.5C 243.304,179.154 243.304,178.654 244.5,178C 243.552,177.517 242.552,177.351 241.5,177.5C 242.091,176.849 242.757,176.182 243.5,175.5C 241.597,175.935 239.931,175.268 238.5,173.5C 238.281,170.326 236.615,168.493 233.5,168C 238.833,167 238.833,166 233.5,165C 237.5,164.333 237.5,163.667 233.5,163C 237.5,162 237.5,161 233.5,160C 234.833,159.667 236.167,159.333 237.5,159C 232.167,158.333 232.167,157.667 237.5,157C 232.379,155.577 232.379,154.577 237.5,154C 232.279,153.458 232.279,152.624 237.5,151.5C 232.279,150.376 232.279,149.542 237.5,149C 236.359,148.259 236.359,147.425 237.5,146.5C 236.271,145.719 234.938,145.219 233.5,145C 237.852,144.581 238.185,143.914 234.5,143C 239.833,142 239.833,141 234.5,140C 239.721,139.458 239.721,138.624 234.5,137.5C 236.14,137.847 237.807,137.347 239.5,136C 238.167,135.667 236.833,135.333 235.5,135C 240.794,134.182 240.794,133.682 235.5,133.5C 235.088,131.027 236.088,129.694 238.5,129.5 Z"/></g>
<g><path style="opacity:1" fill="#4f3c41" d="M 190.5,170.5 C 187.747,174.88 183.747,177.213 178.5,177.5C 176.585,177.784 174.919,177.451 173.5,176.5C 171.345,155.846 159.845,144.846 139,143.5C 118.692,145.308 107.526,156.308 105.5,176.5C 104.081,177.451 102.415,177.784 100.5,177.5C 96.7503,177.598 93.417,176.431 90.5,174C 89.1772,173.184 88.5106,172.017 88.5,170.5C 94.4013,142.93 111.401,128.263 139.5,126.5C 167.599,128.263 184.599,142.93 190.5,170.5 Z"/></g>
<g><path style="opacity:1" fill="#4f3c40" d="M 422.5,171.5 C 419.611,175.611 415.611,177.611 410.5,177.5C 409.5,177.5 408.5,177.5 407.5,177.5C 401.847,150.342 385.514,139.842 358.5,146C 345.431,151.915 338.431,162.082 337.5,176.5C 336.432,177.434 335.099,177.768 333.5,177.5C 333.167,177.5 332.833,177.5 332.5,177.5C 327.178,177.181 323.178,174.847 320.5,170.5C 329.243,136.784 350.91,122.618 385.5,128C 406.695,135.024 419.028,149.524 422.5,171.5 Z"/></g>
<g><path style="opacity:1" fill="#4b3548" d="M 173.5,176.5 C 171.847,176.34 170.514,175.674 169.5,174.5C 164.432,153.961 151.432,145.461 130.5,149C 118.733,153.047 112.067,161.214 110.5,173.5C 109.341,175.25 107.674,176.25 105.5,176.5C 107.526,156.308 118.692,145.308 139,143.5C 159.845,144.846 171.345,155.846 173.5,176.5 Z"/></g>
<g><path style="opacity:1" fill="#4b3549" d="M 407.5,177.5 C 405.181,177.008 403.181,176.008 401.5,174.5C 398.47,157.805 388.47,148.805 371.5,147.5C 355.476,149.195 345.81,157.862 342.5,173.5C 341.341,175.25 339.674,176.25 337.5,176.5C 338.431,162.082 345.431,151.915 358.5,146C 385.514,139.842 401.847,150.342 407.5,177.5 Z"/></g>
<g><path style="opacity:1" fill="#472f4f" d="M 169.5,174.5 C 165.304,169.312 160.971,164.145 156.5,159C 143.69,152.44 131.357,153.107 119.5,161C 116.836,163.669 115.002,166.836 114,170.5C 112.961,171.71 111.794,172.71 110.5,173.5C 112.067,161.214 118.733,153.047 130.5,149C 151.432,145.461 164.432,153.961 169.5,174.5 Z"/></g>
<g><path style="opacity:1" fill="#472f4e" d="M 401.5,174.5 C 400.206,173.71 399.039,172.71 398,171.5C 390.696,156.821 378.863,151.321 362.5,155C 359.833,156.333 357.167,157.667 354.5,159C 350.123,163.627 346.123,168.461 342.5,173.5C 345.81,157.862 355.476,149.195 371.5,147.5C 388.47,148.805 398.47,157.805 401.5,174.5 Z"/></g>
<g><path style="opacity:1" fill="#ed883b" d="M 95.5,114.5 C 96.8026,116.757 96.136,118.59 93.5,120C 93.8333,120.333 94.1667,120.667 94.5,121C 90.7079,124.004 89.0412,127.67 89.5,132C 86.0312,136.647 83.1979,141.48 81,146.5C 80.908,158.589 80.0747,170.589 78.5,182.5C 75.9985,187.841 74.1651,193.507 73,199.5C 73.1407,206.673 72.9741,213.673 72.5,220.5C 72.7525,217.68 72.2525,215.014 71,212.5C 70.6667,215.833 70.3333,219.167 70,222.5C 69.6667,220.833 69.3333,219.167 69,217.5C 68.3333,220.167 67.6667,222.833 67,225.5C 62.6076,207.274 62.1076,189.108 65.5,171C 64.7069,169.915 64.0402,168.748 63.5,167.5C 65.6571,162.699 66.9904,157.699 67.5,152.5C 70.3464,146.145 73.8464,140.145 78,134.5C 83.3259,127.344 89.1592,120.677 95.5,114.5 Z"/></g>
<g><path style="opacity:1" fill="#6e96f7" d="M 169.5,174.5 C 170.514,175.674 171.847,176.34 173.5,176.5C 174.919,177.451 176.585,177.784 178.5,177.5C 178.5,216.5 178.5,255.5 178.5,294.5C 178.5,309.833 178.5,325.167 178.5,340.5C 178.5,351.5 178.5,362.5 178.5,373.5C 178.5,382.167 178.5,390.833 178.5,399.5C 178.5,399.833 178.5,400.167 178.5,400.5C 178.167,400.5 177.833,400.5 177.5,400.5C 177.5,392.5 177.5,384.5 177.5,376.5C 177.5,364.833 177.5,353.167 177.5,341.5C 177.5,327.167 177.5,312.833 177.5,298.5C 177.5,286.5 177.5,274.5 177.5,262.5C 177.5,250.833 177.5,239.167 177.5,227.5C 177.5,215.5 177.5,203.5 177.5,191.5C 152.167,191.5 126.833,191.5 101.5,191.5C 101.5,203.5 101.5,215.5 101.5,227.5C 101.5,239.167 101.5,250.833 101.5,262.5C 101.5,274.5 101.5,286.5 101.5,298.5C 101.817,302.702 101.483,306.702 100.5,310.5C 100.5,298.167 100.5,285.833 100.5,273.5C 100.5,241.5 100.5,209.5 100.5,177.5C 102.415,177.784 104.081,177.451 105.5,176.5C 107.674,176.25 109.341,175.25 110.5,173.5C 111.794,172.71 112.961,171.71 114,170.5C 115.002,166.836 116.836,163.669 119.5,161C 131.357,153.107 143.69,152.44 156.5,159C 160.971,164.145 165.304,169.312 169.5,174.5 Z"/></g>
<g><path style="opacity:1" fill="#6997fd" d="M 401.5,174.5 C 403.181,176.008 405.181,177.008 407.5,177.5C 408.5,177.5 409.5,177.5 410.5,177.5C 410.5,179.5 410.5,181.5 410.5,183.5C 410.5,187.5 410.5,191.5 410.5,195.5C 410.5,203.833 410.5,212.167 410.5,220.5C 410.5,230.167 410.5,239.833 410.5,249.5C 410.5,249.833 410.5,250.167 410.5,250.5C 409.508,243.018 409.175,235.352 409.5,227.5C 409.5,215.5 409.5,203.5 409.5,191.5C 384.167,191.5 358.833,191.5 333.5,191.5C 333.5,186.833 333.5,182.167 333.5,177.5C 335.099,177.768 336.432,177.434 337.5,176.5C 339.674,176.25 341.341,175.25 342.5,173.5C 346.123,168.461 350.123,163.627 354.5,159C 357.167,157.667 359.833,156.333 362.5,155C 378.863,151.321 390.696,156.821 398,171.5C 399.039,172.71 400.206,173.71 401.5,174.5 Z"/></g>
<g><path style="opacity:1" fill="#febc4f" d="M 332.5,202.5 C 332.5,213.5 332.5,224.5 332.5,235.5C 330.24,234.861 328.24,233.694 326.5,232C 324.899,231.727 323.399,231.227 322,230.5C 321.667,230.833 321.333,231.167 321,231.5C 319.901,228.961 318.234,228.295 316,229.5C 314.67,228.418 313.17,227.751 311.5,227.5C 295.468,200.657 271.801,189.657 240.5,194.5C 241.146,192.844 241.813,191.177 242.5,189.5C 242.176,187.431 241.342,187.098 240,188.5C 236.841,187.255 237.007,186.088 240.5,185C 238.122,184.026 238.456,183.359 241.5,183C 239.1,181.943 236.767,181.276 234.5,181C 236.167,180.667 237.833,180.333 239.5,180C 238.833,179.667 238.167,179.333 237.5,179C 239.058,178.79 240.391,178.29 241.5,177.5C 242.552,177.351 243.552,177.517 244.5,178C 243.304,178.654 243.304,179.154 244.5,179.5C 245.251,178.624 245.751,177.624 246,176.5C 247.779,177.479 249.445,177.146 251,175.5C 251.617,176.449 251.451,177.282 250.5,178C 252.112,178.72 253.612,178.554 255,177.5C 257.173,179.901 259.506,179.901 262,177.5C 262.324,179.569 263.158,179.902 264.5,178.5C 268.741,181.235 273.241,182.235 278,181.5C 280.514,183.09 283.18,184.423 286,185.5C 286.772,185.355 287.439,185.022 288,184.5C 288.487,187.712 289.987,188.712 292.5,187.5C 295.326,188.58 298.159,189.58 301,190.5C 301.333,190.167 301.667,189.833 302,189.5C 304.099,190.466 305.932,191.8 307.5,193.5C 310.469,192.885 312.802,194.052 314.5,197C 315.784,197.684 316.951,197.517 318,196.5C 318.833,197.333 319.667,198.167 320.5,199C 324.632,199.986 328.632,201.153 332.5,202.5 Z"/></g>
<g><path style="opacity:1" fill="#f89739" d="M 115.5,96.5 C 116.097,96.7352 116.43,97.2352 116.5,98C 115.873,100.135 115.373,102.302 115,104.5C 111.934,108.708 109.434,113.208 107.5,118C 107.833,118.333 108.167,118.667 108.5,119C 107.208,123.205 105.875,127.372 104.5,131.5C 104.624,132.107 104.957,132.44 105.5,132.5C 97.0009,138.837 90.5009,146.837 86,156.5C 85.3333,159.833 85.3333,163.167 86,166.5C 86.2004,168.32 87.0337,169.653 88.5,170.5C 88.5106,172.017 89.1772,173.184 90.5,174C 93.417,176.431 96.7503,177.598 100.5,177.5C 100.5,209.5 100.5,241.5 100.5,273.5C 92.3665,253.298 87.1999,232.298 85,210.5C 83.1089,218.404 81.7755,226.404 81,234.5C 78.8433,228.581 78.3433,222.581 79.5,216.5C 77.604,212.139 77.604,207.972 79.5,204C 78.6733,200.406 78.0067,196.739 77.5,193C 78.2865,189.542 78.6198,186.042 78.5,182.5C 80.0747,170.589 80.908,158.589 81,146.5C 83.1979,141.48 86.0312,136.647 89.5,132C 89.0412,127.67 90.7079,124.004 94.5,121C 94.1667,120.667 93.8333,120.333 93.5,120C 96.136,118.59 96.8026,116.757 95.5,114.5C 101.266,107.396 107.933,101.396 115.5,96.5 Z"/></g>
<g><path style="opacity:1" fill="#6692ff" d="M 177.5,227.5 C 152.167,227.5 126.833,227.5 101.5,227.5C 101.5,215.5 101.5,203.5 101.5,191.5C 126.833,191.5 152.167,191.5 177.5,191.5C 177.5,203.5 177.5,215.5 177.5,227.5 Z"/></g>
<g><path style="opacity:1" fill="#6692ff" d="M 333.5,191.5 C 358.833,191.5 384.167,191.5 409.5,191.5C 409.5,203.5 409.5,215.5 409.5,227.5C 384.167,227.5 358.833,227.5 333.5,227.5C 333.5,215.5 333.5,203.5 333.5,191.5 Z"/></g>
<g><path style="opacity:1" fill="#91059a" d="M 311.5,227.5 C 311.5,228.167 311.5,228.833 311.5,229.5C 274.64,209.519 237.807,209.519 201,229.5C 200.536,228.906 200.369,228.239 200.5,227.5C 208.975,210.699 222.308,199.699 240.5,194.5C 271.801,189.657 295.468,200.657 311.5,227.5 Z"/></g>
<g><path style="opacity:1" fill="#fed960" d="M 410.5,195.5 C 412.757,195.962 414.757,196.962 416.5,198.5C 417.086,198.291 417.586,197.957 418,197.5C 419.243,199.833 420.909,200.5 423,199.5C 426.18,202.696 429.847,205.029 434,206.5C 436.789,203.871 438.789,204.538 440,208.5C 440.414,208.043 440.914,207.709 441.5,207.5C 443.378,208.642 445.212,209.642 447,210.5C 447.667,207.833 448.333,207.833 449,210.5C 450.913,208.044 452.579,208.378 454,211.5C 454.667,210.167 455.333,210.167 456,211.5C 458.777,208.244 461.277,204.911 463.5,201.5C 468.091,216.375 470.758,231.708 471.5,247.5C 470.778,247.918 470.278,248.584 470,249.5C 469.047,247.408 467.714,247.075 466,248.5C 464.472,245.159 462.472,245.159 460,248.5C 458.402,245.075 456.402,244.742 454,247.5C 452,245.5 450,243.5 448,241.5C 445.766,242.705 444.099,242.039 443,239.5C 442.667,239.833 442.333,240.167 442,240.5C 439.306,236.812 435.972,233.812 432,231.5C 431.667,231.833 431.333,232.167 431,232.5C 430.057,229.322 428.224,228.322 425.5,229.5C 420.75,226.083 415.75,223.083 410.5,220.5C 410.5,212.167 410.5,203.833 410.5,195.5 Z"/></g>
<g><path style="opacity:1" fill="#9d0499" d="M 311.5,229.5 C 312.117,229.611 312.617,229.944 313,230.5C 316.714,239.476 318.214,248.809 317.5,258.5C 303.101,248.14 287.101,241.306 269.5,238C 241.634,234.714 216.634,241.548 194.5,258.5C 194.5,254.5 194.5,250.5 194.5,246.5C 194.921,239.573 196.921,233.24 200.5,227.5C 200.369,228.239 200.536,228.906 201,229.5C 237.807,209.519 274.64,209.519 311.5,229.5 Z"/></g>
<g><path style="opacity:1" fill="#f38341" d="M 67.5,152.5 C 66.9904,157.699 65.6571,162.699 63.5,167.5C 64.0402,168.748 64.7069,169.915 65.5,171C 62.1076,189.108 62.6076,207.274 67,225.5C 67.6667,222.833 68.3333,220.167 69,217.5C 69.3333,219.167 69.6667,220.833 70,222.5C 70.3333,219.167 70.6667,215.833 71,212.5C 72.2525,215.014 72.7525,217.68 72.5,220.5C 72.668,228.517 73.168,236.517 74,244.5C 77.1635,254.655 79.4969,264.988 81,275.5C 87.2979,291.737 93.7979,307.737 100.5,323.5C 100.5,334.5 100.5,345.5 100.5,356.5C 87.6688,337.173 77.1688,316.506 69,294.5C 65.1147,279.363 61.2814,264.196 57.5,249C 57.9938,247.538 58.3272,246.038 58.5,244.5C 56.3458,229.688 54.3458,214.855 52.5,200C 53.7826,197.152 53.7826,194.318 52.5,191.5C 53.1667,190.167 53.8333,188.833 54.5,187.5C 54.1445,186.478 53.4778,185.811 52.5,185.5C 56.1659,173.811 61.1659,162.811 67.5,152.5 Z"/></g>
<g><path style="opacity:1" fill="#628cff" d="M 101.5,227.5 C 126.833,227.5 152.167,227.5 177.5,227.5C 177.5,239.167 177.5,250.833 177.5,262.5C 152.167,262.5 126.833,262.5 101.5,262.5C 101.5,250.833 101.5,239.167 101.5,227.5 Z"/></g>
<g><path style="opacity:1" fill="#628cfe" d="M 333.5,227.5 C 358.833,227.5 384.167,227.5 409.5,227.5C 409.175,235.352 409.508,243.018 410.5,250.5C 410.5,270.5 410.5,290.5 410.5,310.5C 410.5,314.5 410.5,318.5 410.5,322.5C 409.508,314.684 409.174,306.684 409.5,298.5C 409.5,286.5 409.5,274.5 409.5,262.5C 384.167,262.5 358.833,262.5 333.5,262.5C 333.5,250.833 333.5,239.167 333.5,227.5 Z"/></g>
<g><path style="opacity:1" fill="#a90497" d="M 317.5,258.5 C 317.5,267.167 317.5,275.833 317.5,284.5C 283.693,253.525 247.027,249.691 207.5,273C 203.241,276.381 199.074,279.881 195,283.5C 194.5,275.173 194.334,266.84 194.5,258.5C 216.634,241.548 241.634,234.714 269.5,238C 287.101,241.306 303.101,248.14 317.5,258.5 Z"/></g>
<g><path style="opacity:0.99" fill="#e66d47" d="M 39.5,251.5 C 40.29,252.609 40.79,253.942 41,255.5C 41.3333,255.167 41.6667,254.833 42,254.5C 47.9788,274.416 53.6454,294.416 59,314.5C 70.0755,339.68 83.9088,363.013 100.5,384.5C 100.5,388.833 100.5,393.167 100.5,397.5C 98.9397,397.481 97.4397,397.148 96,396.5C 93.4314,393.465 90.2647,391.299 86.5,390C 87.1667,389.667 87.8333,389.333 88.5,389C 86.9651,388.504 85.4651,388.67 84,389.5C 83.9223,388.102 82.7556,387.102 80.5,386.5C 80.1667,385.833 79.8333,385.167 79.5,384.5C 80.1667,384.167 80.8333,383.833 81.5,383.5C 79.6652,382.572 79.3318,381.406 80.5,380C 79.8333,379.667 79.1667,379.333 78.5,379C 78.8881,377.192 78.8881,375.525 78.5,374C 79.1667,373.333 79.8333,372.667 80.5,372C 70.5283,357.232 61.695,341.732 54,325.5C 48.4759,310.78 43.8092,295.78 40,280.5C 39.7216,281.416 39.2216,282.082 38.5,282.5C 38.1917,272.085 38.525,261.751 39.5,251.5 Z"/></g>
<g><path style="opacity:0.998" fill="#fecc56" d="M 410.5,220.5 C 415.75,223.083 420.75,226.083 425.5,229.5C 428.224,228.322 430.057,229.322 431,232.5C 431.333,232.167 431.667,231.833 432,231.5C 435.972,233.812 439.306,236.812 442,240.5C 442.333,240.167 442.667,239.833 443,239.5C 444.099,242.039 445.766,242.705 448,241.5C 450,243.5 452,245.5 454,247.5C 456.402,244.742 458.402,245.075 460,248.5C 462.472,245.159 464.472,245.159 466,248.5C 467.714,247.075 469.047,247.408 470,249.5C 470.278,248.584 470.778,247.918 471.5,247.5C 472.985,266.823 472.652,286.156 470.5,305.5C 469.778,305.082 469.278,304.416 469,303.5C 468.667,303.833 468.333,304.167 468,304.5C 467.333,301.833 466.667,299.167 466,296.5C 465.667,298.167 465.333,299.833 465,301.5C 464,298.833 463,296.167 462,293.5C 461.667,295.167 461.333,296.833 461,298.5C 460.781,297.062 460.281,295.729 459.5,294.5C 457.869,296.059 457.036,298.059 457,300.5C 455.86,297.898 455.027,295.231 454.5,292.5C 453.178,292.33 452.011,292.663 451,293.5C 450.333,300.167 449.667,300.167 449,293.5C 448.667,293.833 448.333,294.167 448,294.5C 447.273,292.047 446.273,289.714 445,287.5C 444.667,288.833 444.333,290.167 444,291.5C 441.972,288.437 440.306,285.104 439,281.5C 437.701,281.034 436.201,281.034 434.5,281.5C 434.657,280.127 434.49,278.793 434,277.5C 433.667,277.833 433.333,278.167 433,278.5C 430.566,274.618 427.899,270.952 425,267.5C 424.667,268.167 424.333,268.833 424,269.5C 423.187,267.564 422.687,265.564 422.5,263.5C 421.178,263.33 420.011,263.663 419,264.5C 416.736,259.096 413.902,254.096 410.5,249.5C 410.5,239.833 410.5,230.167 410.5,220.5 Z"/></g>
<g><path style="opacity:1" fill="#f98e3e" d="M 78.5,182.5 C 78.6198,186.042 78.2865,189.542 77.5,193C 78.0067,196.739 78.6733,200.406 79.5,204C 77.604,207.972 77.604,212.139 79.5,216.5C 78.3433,222.581 78.8433,228.581 81,234.5C 81.7755,226.404 83.1089,218.404 85,210.5C 87.1999,232.298 92.3665,253.298 100.5,273.5C 100.5,285.833 100.5,298.167 100.5,310.5C 100.5,314.833 100.5,319.167 100.5,323.5C 93.7979,307.737 87.2979,291.737 81,275.5C 79.4969,264.988 77.1635,254.655 74,244.5C 73.168,236.517 72.668,228.517 72.5,220.5C 72.9741,213.673 73.1407,206.673 73,199.5C 74.1651,193.507 75.9985,187.841 78.5,182.5 Z"/></g>
<g><path style="opacity:1" fill="#5e86ff" d="M 101.5,262.5 C 126.833,262.5 152.167,262.5 177.5,262.5C 177.5,274.5 177.5,286.5 177.5,298.5C 152.167,298.5 126.833,298.5 101.5,298.5C 101.5,286.5 101.5,274.5 101.5,262.5 Z"/></g>
<g><path style="opacity:1" fill="#5e86ff" d="M 333.5,262.5 C 358.833,262.5 384.167,262.5 409.5,262.5C 409.5,274.5 409.5,286.5 409.5,298.5C 384.167,298.5 358.833,298.5 333.5,298.5C 333.5,286.5 333.5,274.5 333.5,262.5 Z"/></g>
<g><path style="opacity:1" fill="#b5979a" d="M 332.5,177.5 C 332.833,177.5 333.167,177.5 333.5,177.5C 333.5,182.167 333.5,186.833 333.5,191.5C 333.5,203.5 333.5,215.5 333.5,227.5C 333.5,239.167 333.5,250.833 333.5,262.5C 333.5,274.5 333.5,286.5 333.5,298.5C 333.5,312.833 333.5,327.167 333.5,341.5C 333.5,353.167 333.5,364.833 333.5,376.5C 333.5,388.5 333.5,400.5 333.5,412.5C 333.5,433.5 333.5,454.5 333.5,475.5C 334.5,475.5 335.5,475.5 336.5,475.5C 335.791,476.404 334.791,476.737 333.5,476.5C 332.549,475.081 332.216,473.415 332.5,471.5C 332.5,469.5 332.5,467.5 332.5,465.5C 332.5,463.5 332.5,461.5 332.5,459.5C 332.5,458.833 332.5,458.167 332.5,457.5C 332.5,455.167 332.5,452.833 332.5,450.5C 332.5,448.5 332.5,446.5 332.5,444.5C 332.5,441.5 332.5,438.5 332.5,435.5C 332.5,411.167 332.5,386.833 332.5,362.5C 332.5,320.167 332.5,277.833 332.5,235.5C 332.5,224.5 332.5,213.5 332.5,202.5C 332.5,198.5 332.5,194.5 332.5,190.5C 332.5,186.167 332.5,181.833 332.5,177.5 Z"/></g>
<g><path style="opacity:1" fill="#b60695" d="M 194.5,246.5 C 194.5,250.5 194.5,254.5 194.5,258.5C 194.334,266.84 194.5,275.173 195,283.5C 199.074,279.881 203.241,276.381 207.5,273C 247.027,249.691 283.693,253.525 317.5,284.5C 317.84,292.797 316.507,300.797 313.5,308.5C 304.858,299.381 294.858,291.881 283.5,286C 258.149,276.193 234.482,279.193 212.5,295C 207.259,299.416 202.259,303.916 197.5,308.5C 195.136,300.346 193.803,292.013 193.5,283.5C 193.171,270.989 193.505,258.655 194.5,246.5 Z"/></g>
<g><path style="opacity:1" fill="#feb041" d="M 193.5,283.5 C 193.803,292.013 195.136,300.346 197.5,308.5C 200.019,314.998 203.686,320.664 208.5,325.5C 212.558,330.889 217.558,335.222 223.5,338.5C 227.881,342.024 232.881,344.524 238.5,346C 247.775,347.353 257.109,347.853 266.5,347.5C 269.101,350.807 272.434,353.14 276.5,354.5C 277.293,354.069 278.127,353.735 279,353.5C 279.667,354.167 280.333,354.833 281,355.5C 282.412,354.077 283.579,354.244 284.5,356C 280.073,356 279.573,357.167 283,359.5C 285.026,358.981 287.026,358.647 289,358.5C 290.204,359.471 290.704,360.471 290.5,361.5C 291.478,361.023 292.311,360.357 293,359.5C 293.667,360.833 294.333,362.167 295,363.5C 295.654,362.304 296.154,362.304 296.5,363.5C 295.24,364.382 294.074,365.382 293,366.5C 292.107,365.289 291.274,365.289 290.5,366.5C 292.707,367.635 295.04,368.301 297.5,368.5C 297.45,366.41 298.45,365.077 300.5,364.5C 301.506,364.938 301.506,365.604 300.5,366.5C 303.067,367.854 305.401,367.52 307.5,365.5C 307.669,366.397 308.002,367.397 308.5,368.5C 309.814,367.687 310.981,366.687 312,365.5C 313.049,366.517 314.216,366.684 315.5,366C 313.099,365.195 313.266,364.362 316,363.5C 317.008,363.982 318.175,364.148 319.5,364C 318.672,364.915 317.672,365.581 316.5,366C 320.551,365.814 324.551,365.981 328.5,366.5C 330.35,365.758 331.016,364.758 330.5,363.5C 327.024,364.978 323.691,364.812 320.5,363C 324.414,363.257 328.414,363.091 332.5,362.5C 332.5,386.833 332.5,411.167 332.5,435.5C 329.138,435.648 325.804,435.148 322.5,434C 334.35,432.417 334.35,431.417 322.5,431C 324.833,430.667 327.167,430.333 329.5,430C 326.456,429.641 326.122,428.974 328.5,428C 321.585,427.763 314.585,427.097 307.5,426C 309.833,425.667 312.167,425.333 314.5,425C 307.652,424.526 300.985,423.192 294.5,421C 296.595,420.444 296.762,419.944 295,419.5C 292.88,420.459 290.713,420.626 288.5,420C 289.833,419.667 291.167,419.333 292.5,419C 286.498,417.247 280.665,415.081 275,412.5C 274.667,412.833 274.333,413.167 274,413.5C 273.274,410.712 271.44,409.212 268.5,409C 269.5,408.667 270.5,408.333 271.5,408C 269.167,406.833 266.833,405.667 264.5,404.5C 260.176,404.848 256.51,403.182 253.5,399.5C 252.549,400.326 251.549,400.492 250.5,400C 249.167,399.333 249.167,398.667 250.5,398C 248.718,397.186 247.218,396.019 246,394.5C 245.667,394.833 245.333,395.167 245,395.5C 235.063,389.085 225.73,382.752 217,376.5C 210.606,371.56 204.772,366.06 199.5,360C 198.551,359.383 197.718,359.549 197,360.5C 190.601,353.921 184.434,347.254 178.5,340.5C 178.5,325.167 178.5,309.833 178.5,294.5C 179.166,291.311 179.833,287.977 180.5,284.5C 181.971,283.619 182.804,282.286 183,280.5C 183.333,281.5 183.667,282.5 184,283.5C 185.772,282.01 185.939,280.343 184.5,278.5C 184.808,277.692 185.308,277.025 186,276.5C 186.333,277.833 186.667,279.167 187,280.5C 188.097,278.947 189.43,277.614 191,276.5C 191.658,278.108 191.158,279.275 189.5,280C 190.191,281.067 190.691,282.234 191,283.5C 191.333,282.5 191.667,281.5 192,280.5C 192.232,281.737 192.732,282.737 193.5,283.5 Z"/></g>
<g><path style="opacity:1" fill="#c20694" d="M 313.5,308.5 C 311.076,315.027 307.409,320.693 302.5,325.5C 282.326,300.79 257.659,294.957 228.5,308C 220.726,312.61 214.059,318.443 208.5,325.5C 203.686,320.664 200.019,314.998 197.5,308.5C 202.259,303.916 207.259,299.416 212.5,295C 234.482,279.193 258.149,276.193 283.5,286C 294.858,291.881 304.858,299.381 313.5,308.5 Z"/></g>
<g><path style="opacity:1" fill="#5a7ffe" d="M 101.5,298.5 C 126.833,298.5 152.167,298.5 177.5,298.5C 177.5,312.833 177.5,327.167 177.5,341.5C 152.167,341.5 126.833,341.5 101.5,341.5C 101.5,353.167 101.5,364.833 101.5,376.5C 101.5,388.5 101.5,400.5 101.5,412.5C 101.5,419.167 101.5,425.833 101.5,432.5C 100.833,432.5 100.5,432.167 100.5,431.5C 100.5,424.833 100.5,418.167 100.5,411.5C 100.5,406.833 100.5,402.167 100.5,397.5C 100.5,393.167 100.5,388.833 100.5,384.5C 100.5,375.167 100.5,365.833 100.5,356.5C 100.5,345.5 100.5,334.5 100.5,323.5C 100.5,319.167 100.5,314.833 100.5,310.5C 101.483,306.702 101.817,302.702 101.5,298.5 Z"/></g>
<g><path style="opacity:1" fill="#5a7ffe" d="M 333.5,298.5 C 358.833,298.5 384.167,298.5 409.5,298.5C 409.174,306.684 409.508,314.684 410.5,322.5C 410.5,359.167 410.5,395.833 410.5,432.5C 410.5,433.167 410.167,433.5 409.5,433.5C 409.5,426.5 409.5,419.5 409.5,412.5C 409.5,400.5 409.5,388.5 409.5,376.5C 409.5,364.833 409.5,353.167 409.5,341.5C 384.167,341.5 358.833,341.5 333.5,341.5C 333.5,327.167 333.5,312.833 333.5,298.5 Z"/></g>
<g><path style="opacity:1" fill="#ec7744" d="M 52.5,185.5 C 53.4778,185.811 54.1445,186.478 54.5,187.5C 53.8333,188.833 53.1667,190.167 52.5,191.5C 53.7826,194.318 53.7826,197.152 52.5,200C 54.3458,214.855 56.3458,229.688 58.5,244.5C 58.3272,246.038 57.9938,247.538 57.5,249C 61.2814,264.196 65.1147,279.363 69,294.5C 77.1688,316.506 87.6688,337.173 100.5,356.5C 100.5,365.833 100.5,375.167 100.5,384.5C 83.9088,363.013 70.0755,339.68 59,314.5C 53.6454,294.416 47.9788,274.416 42,254.5C 41.6667,254.833 41.3333,255.167 41,255.5C 40.79,253.942 40.29,252.609 39.5,251.5C 40.2652,228.675 44.5986,206.675 52.5,185.5 Z"/></g>
<g><path style="opacity:1" fill="#cc0892" d="M 302.5,325.5 C 298.929,331.457 293.929,335.79 287.5,338.5C 274.656,324.204 258.989,320.037 240.5,326C 233.831,328.84 228.164,333.007 223.5,338.5C 217.558,335.222 212.558,330.889 208.5,325.5C 214.059,318.443 220.726,312.61 228.5,308C 257.659,294.957 282.326,300.79 302.5,325.5 Z"/></g>
<g><path style="opacity:0.997" fill="#fdc04b" d="M 410.5,249.5 C 413.902,254.096 416.736,259.096 419,264.5C 420.011,263.663 421.178,263.33 422.5,263.5C 422.687,265.564 423.187,267.564 424,269.5C 424.333,268.833 424.667,268.167 425,267.5C 427.899,270.952 430.566,274.618 433,278.5C 433.333,278.167 433.667,277.833 434,277.5C 434.49,278.793 434.657,280.127 434.5,281.5C 436.201,281.034 437.701,281.034 439,281.5C 440.306,285.104 441.972,288.437 444,291.5C 444.333,290.167 444.667,288.833 445,287.5C 446.273,289.714 447.273,292.047 448,294.5C 448.333,294.167 448.667,293.833 449,293.5C 449.667,300.167 450.333,300.167 451,293.5C 452.011,292.663 453.178,292.33 454.5,292.5C 455.027,295.231 455.86,297.898 457,300.5C 457.036,298.059 457.869,296.059 459.5,294.5C 460.281,295.729 460.781,297.062 461,298.5C 461.333,296.833 461.667,295.167 462,293.5C 463,296.167 464,298.833 465,301.5C 465.333,299.833 465.667,298.167 466,296.5C 466.667,299.167 467.333,301.833 468,304.5C 468.333,304.167 468.667,303.833 469,303.5C 469.278,304.416 469.778,305.082 470.5,305.5C 468.674,322.801 464.674,339.467 458.5,355.5C 457.313,354.466 456.48,353.133 456,351.5C 455.5,352.667 454.667,353.5 453.5,354C 453.833,354.333 454.167,354.667 454.5,355C 450.079,356.86 446.913,359.36 445,362.5C 444.508,361.451 444.674,360.451 445.5,359.5C 444.167,359.167 442.833,358.833 441.5,358.5C 442.326,357.549 442.492,356.549 442,355.5C 440.907,357.349 439.574,359.016 438,360.5C 437.08,360.07 436.247,359.736 435.5,359.5C 436.04,358.252 436.707,357.085 437.5,356C 436.256,355.544 435.423,356.044 435,357.5C 430.666,357.333 429.833,355.833 432.5,353C 430.277,352.348 429.11,350.848 429,348.5C 428.028,350.305 426.861,351.972 425.5,353.5C 424.904,352.284 424.737,350.951 425,349.5C 423.869,350.604 423.035,350.271 422.5,348.5C 423.309,346.208 423.643,344.041 423.5,342C 422.062,341.781 420.729,341.281 419.5,340.5C 420.14,335.78 420.14,330.947 419.5,326C 418.552,325.517 417.552,325.351 416.5,325.5C 416.663,323.143 416.497,320.81 416,318.5C 415.667,319.5 415.333,320.5 415,321.5C 414.206,318.529 413.539,315.529 413,312.5C 412.583,311.244 411.75,310.577 410.5,310.5C 410.5,290.5 410.5,270.5 410.5,250.5C 410.5,250.167 410.5,249.833 410.5,249.5 Z"/></g>
<g><path style="opacity:1" fill="#d90b90" d="M 287.5,338.5 C 281.115,342.853 274.115,345.853 266.5,347.5C 257.109,347.853 247.775,347.353 238.5,346C 232.881,344.524 227.881,342.024 223.5,338.5C 228.164,333.007 233.831,328.84 240.5,326C 258.989,320.037 274.656,324.204 287.5,338.5 Z"/></g>
<g><path style="opacity:1" fill="#feaa4a" d="M 311.5,227.5 C 313.17,227.751 314.67,228.418 316,229.5C 318.234,228.295 319.901,228.961 321,231.5C 321.333,231.167 321.667,230.833 322,230.5C 323.399,231.227 324.899,231.727 326.5,232C 328.24,233.694 330.24,234.861 332.5,235.5C 332.5,277.833 332.5,320.167 332.5,362.5C 328.414,363.091 324.414,363.257 320.5,363C 323.691,364.812 327.024,364.978 330.5,363.5C 331.016,364.758 330.35,365.758 328.5,366.5C 324.551,365.981 320.551,365.814 316.5,366C 317.672,365.581 318.672,364.915 319.5,364C 318.175,364.148 317.008,363.982 316,363.5C 313.266,364.362 313.099,365.195 315.5,366C 314.216,366.684 313.049,366.517 312,365.5C 310.981,366.687 309.814,367.687 308.5,368.5C 308.002,367.397 307.669,366.397 307.5,365.5C 305.401,367.52 303.067,367.854 300.5,366.5C 301.506,365.604 301.506,364.938 300.5,364.5C 298.45,365.077 297.45,366.41 297.5,368.5C 295.04,368.301 292.707,367.635 290.5,366.5C 291.274,365.289 292.107,365.289 293,366.5C 294.074,365.382 295.24,364.382 296.5,363.5C 296.154,362.304 295.654,362.304 295,363.5C 294.333,362.167 293.667,360.833 293,359.5C 292.311,360.357 291.478,361.023 290.5,361.5C 290.704,360.471 290.204,359.471 289,358.5C 287.026,358.647 285.026,358.981 283,359.5C 279.573,357.167 280.073,356 284.5,356C 283.579,354.244 282.412,354.077 281,355.5C 280.333,354.833 279.667,354.167 279,353.5C 278.127,353.735 277.293,354.069 276.5,354.5C 272.434,353.14 269.101,350.807 266.5,347.5C 274.115,345.853 281.115,342.853 287.5,338.5C 293.929,335.79 298.929,331.457 302.5,325.5C 307.409,320.693 311.076,315.027 313.5,308.5C 316.507,300.797 317.84,292.797 317.5,284.5C 317.5,275.833 317.5,267.167 317.5,258.5C 318.214,248.809 316.714,239.476 313,230.5C 312.617,229.944 312.117,229.611 311.5,229.5C 311.5,228.833 311.5,228.167 311.5,227.5 Z"/></g>
<g><path style="opacity:1" fill="#feaa3b" d="M 178.5,340.5 C 184.434,347.254 190.601,353.921 197,360.5C 197.718,359.549 198.551,359.383 199.5,360C 204.772,366.06 210.606,371.56 217,376.5C 225.73,382.752 235.063,389.085 245,395.5C 245.333,395.167 245.667,394.833 246,394.5C 247.218,396.019 248.718,397.186 250.5,398C 249.167,398.667 249.167,399.333 250.5,400C 251.549,400.492 252.549,400.326 253.5,399.5C 256.51,403.182 260.176,404.848 264.5,404.5C 266.833,405.667 269.167,406.833 271.5,408C 270.5,408.333 269.5,408.667 268.5,409C 271.44,409.212 273.274,410.712 274,413.5C 274.333,413.167 274.667,412.833 275,412.5C 280.665,415.081 286.498,417.247 292.5,419C 291.167,419.333 289.833,419.667 288.5,420C 290.713,420.626 292.88,420.459 295,419.5C 296.762,419.944 296.595,420.444 294.5,421C 300.985,423.192 307.652,424.526 314.5,425C 312.167,425.333 309.833,425.667 307.5,426C 314.585,427.097 321.585,427.763 328.5,428C 326.122,428.974 326.456,429.641 329.5,430C 327.167,430.333 324.833,430.667 322.5,431C 334.35,431.417 334.35,432.417 322.5,434C 325.804,435.148 329.138,435.648 332.5,435.5C 332.5,438.5 332.5,441.5 332.5,444.5C 322.068,444.727 311.901,444.727 302,444.5C 301.5,444 301,443.5 300.5,443C 284.618,442.692 269.785,438.859 256,431.5C 255.667,431.833 255.333,432.167 255,432.5C 253.156,430.114 250.656,428.947 247.5,429C 244.582,427.291 241.748,425.458 239,423.5C 238.586,423.957 238.086,424.291 237.5,424.5C 230.932,420.029 225.099,415.363 220,410.5C 219.667,410.833 219.333,411.167 219,411.5C 217.667,409.5 216.333,407.5 215,405.5C 214.333,406.167 213.667,406.833 213,407.5C 208.965,403.8 205.298,399.8 202,395.5C 200.442,396.345 199.442,395.679 199,393.5C 198.282,394.451 197.449,394.617 196.5,394C 189.334,387.701 183.334,380.868 178.5,373.5C 178.5,362.5 178.5,351.5 178.5,340.5 Z"/></g>
<g><path style="opacity:1" fill="#5579ff" d="M 177.5,341.5 C 177.5,353.167 177.5,364.833 177.5,376.5C 152.167,376.5 126.833,376.5 101.5,376.5C 101.5,364.833 101.5,353.167 101.5,341.5C 126.833,341.5 152.167,341.5 177.5,341.5 Z"/></g>
<g><path style="opacity:1" fill="#5579ff" d="M 333.5,341.5 C 358.833,341.5 384.167,341.5 409.5,341.5C 409.5,353.167 409.5,364.833 409.5,376.5C 384.167,376.5 358.833,376.5 333.5,376.5C 333.5,364.833 333.5,353.167 333.5,341.5 Z"/></g>
<g><path style="opacity:1" fill="#e0674b" d="M 100.5,397.5 C 100.5,402.167 100.5,406.833 100.5,411.5C 95.5442,409.022 90.5442,406.522 85.5,404C 81.5729,400.426 76.9063,397.592 71.5,395.5C 57.4117,372.756 47.9117,348.089 43,321.5C 40.7599,308.58 39.2599,295.58 38.5,282.5C 39.2216,282.082 39.7216,281.416 40,280.5C 43.8092,295.78 48.4759,310.78 54,325.5C 61.695,341.732 70.5283,357.232 80.5,372C 79.8333,372.667 79.1667,373.333 78.5,374C 78.8881,375.525 78.8881,377.192 78.5,379C 79.1667,379.333 79.8333,379.667 80.5,380C 79.3318,381.406 79.6652,382.572 81.5,383.5C 80.8333,383.833 80.1667,384.167 79.5,384.5C 79.8333,385.167 80.1667,385.833 80.5,386.5C 82.7556,387.102 83.9223,388.102 84,389.5C 85.4651,388.67 86.9651,388.504 88.5,389C 87.8333,389.333 87.1667,389.667 86.5,390C 90.2647,391.299 93.4314,393.465 96,396.5C 97.4397,397.148 98.9397,397.481 100.5,397.5 Z"/></g>
<g><path style="opacity:0.983" fill="#f9b33d" d="M 410.5,310.5 C 411.75,310.577 412.583,311.244 413,312.5C 413.539,315.529 414.206,318.529 415,321.5C 415.333,320.5 415.667,319.5 416,318.5C 416.497,320.81 416.663,323.143 416.5,325.5C 417.552,325.351 418.552,325.517 419.5,326C 420.14,330.947 420.14,335.78 419.5,340.5C 420.729,341.281 422.062,341.781 423.5,342C 423.643,344.041 423.309,346.208 422.5,348.5C 423.035,350.271 423.869,350.604 425,349.5C 424.737,350.951 424.904,352.284 425.5,353.5C 426.861,351.972 428.028,350.305 429,348.5C 429.11,350.848 430.277,352.348 432.5,353C 429.833,355.833 430.666,357.333 435,357.5C 435.423,356.044 436.256,355.544 437.5,356C 436.707,357.085 436.04,358.252 435.5,359.5C 436.247,359.736 437.08,360.07 438,360.5C 439.574,359.016 440.907,357.349 442,355.5C 442.492,356.549 442.326,357.549 441.5,358.5C 442.833,358.833 444.167,359.167 445.5,359.5C 444.674,360.451 444.508,361.451 445,362.5C 446.913,359.36 450.079,356.86 454.5,355C 454.167,354.667 453.833,354.333 453.5,354C 454.667,353.5 455.5,352.667 456,351.5C 456.48,353.133 457.313,354.466 458.5,355.5C 448.811,385.234 432.811,410.9 410.5,432.5C 410.5,395.833 410.5,359.167 410.5,322.5C 410.5,318.5 410.5,314.5 410.5,310.5 Z"/></g>
<g><path style="opacity:1" fill="#fb9d3d" d="M 178.5,373.5 C 183.334,380.868 189.334,387.701 196.5,394C 197.449,394.617 198.282,394.451 199,393.5C 199.442,395.679 200.442,396.345 202,395.5C 205.298,399.8 208.965,403.8 213,407.5C 213.667,406.833 214.333,406.167 215,405.5C 216.333,407.5 217.667,409.5 219,411.5C 219.333,411.167 219.667,410.833 220,410.5C 225.099,415.363 230.932,420.029 237.5,424.5C 238.086,424.291 238.586,423.957 239,423.5C 241.748,425.458 244.582,427.291 247.5,429C 250.656,428.947 253.156,430.114 255,432.5C 255.333,432.167 255.667,431.833 256,431.5C 269.785,438.859 284.618,442.692 300.5,443C 301,443.5 301.5,444 302,444.5C 311.901,444.727 322.068,444.727 332.5,444.5C 332.5,446.5 332.5,448.5 332.5,450.5C 326.629,450.87 320.796,451.537 315,452.5C 303.09,452.269 291.09,452.269 279,452.5C 274.514,450.739 270.014,450.072 265.5,450.5C 262.136,448.737 258.636,447.07 255,445.5C 250.475,445.168 245.975,443.835 241.5,441.5C 240.833,441.833 240.167,442.167 239.5,442.5C 239.331,441.603 238.998,440.603 238.5,439.5C 235.853,437.392 233.02,436.725 230,437.5C 225.662,433.83 220.829,430.997 215.5,429C 213.43,428.052 211.93,426.552 211,424.5C 210.667,424.833 210.333,425.167 210,425.5C 207,423.833 204.667,421.5 203,418.5C 202.667,418.833 202.333,419.167 202,419.5C 200.426,418.016 199.093,416.349 198,414.5C 197.667,414.833 197.333,415.167 197,415.5C 195.333,413.5 193.667,411.5 192,409.5C 191.667,409.833 191.333,410.167 191,410.5C 188.667,407.833 186.333,405.167 184,402.5C 183.667,402.833 183.333,403.167 183,403.5C 181.629,401.959 180.129,400.625 178.5,399.5C 178.5,390.833 178.5,382.167 178.5,373.5 Z"/></g>
<g><path style="opacity:1" fill="#5172ff" d="M 101.5,376.5 C 126.833,376.5 152.167,376.5 177.5,376.5C 177.5,384.5 177.5,392.5 177.5,400.5C 177.5,404.5 177.5,408.5 177.5,412.5C 152.167,412.5 126.833,412.5 101.5,412.5C 101.5,400.5 101.5,388.5 101.5,376.5 Z"/></g>
<g><path style="opacity:1" fill="#5172ff" d="M 333.5,376.5 C 358.833,376.5 384.167,376.5 409.5,376.5C 409.5,388.5 409.5,400.5 409.5,412.5C 384.167,412.5 358.833,412.5 333.5,412.5C 333.5,400.5 333.5,388.5 333.5,376.5 Z"/></g>
<g><path style="opacity:0.997" fill="#dd6c66" d="M 71.5,395.5 C 76.9063,397.592 81.5729,400.426 85.5,404C 90.5442,406.522 95.5442,409.022 100.5,411.5C 100.5,418.167 100.5,424.833 100.5,431.5C 88.9244,421.002 79.2577,409.002 71.5,395.5 Z"/></g>
<g><path style="opacity:1" fill="#506cfd" d="M 101.5,412.5 C 126.833,412.5 152.167,412.5 177.5,412.5C 177.833,433.511 177.5,454.511 176.5,475.5C 174.929,474.691 173.262,474.357 171.5,474.5C 144.835,465.789 121.501,451.789 101.5,432.5C 101.5,425.833 101.5,419.167 101.5,412.5 Z"/></g>
<g><path style="opacity:1" fill="#526dfc" d="M 333.5,412.5 C 358.833,412.5 384.167,412.5 409.5,412.5C 409.5,419.5 409.5,426.5 409.5,433.5C 388.646,453.312 364.313,467.312 336.5,475.5C 335.5,475.5 334.5,475.5 333.5,475.5C 333.5,454.5 333.5,433.5 333.5,412.5 Z"/></g>
<g><path style="opacity:1" fill="#f68c42" d="M 178.5,399.5 C 180.129,400.625 181.629,401.959 183,403.5C 183.333,403.167 183.667,402.833 184,402.5C 186.333,405.167 188.667,407.833 191,410.5C 191.333,410.167 191.667,409.833 192,409.5C 193.667,411.5 195.333,413.5 197,415.5C 197.333,415.167 197.667,414.833 198,414.5C 199.093,416.349 200.426,418.016 202,419.5C 202.333,419.167 202.667,418.833 203,418.5C 204.667,421.5 207,423.833 210,425.5C 210.333,425.167 210.667,424.833 211,424.5C 211.93,426.552 213.43,428.052 215.5,429C 220.829,430.997 225.662,433.83 230,437.5C 233.02,436.725 235.853,437.392 238.5,439.5C 238.998,440.603 239.331,441.603 239.5,442.5C 240.167,442.167 240.833,441.833 241.5,441.5C 245.975,443.835 250.475,445.168 255,445.5C 258.636,447.07 262.136,448.737 265.5,450.5C 258.733,449.957 252.067,449.457 245.5,449C 251.945,452.438 258.612,454.271 265.5,454.5C 268.765,455.057 271.765,456.057 274.5,457.5C 262.369,457.689 250.369,456.522 238.5,454C 235.031,452.789 231.698,451.289 228.5,449.5C 211.265,445.839 194.598,441.506 178.5,436.5C 178.5,424.5 178.5,412.5 178.5,400.5C 178.5,400.167 178.5,399.833 178.5,399.5 Z"/></g>
<g><path style="opacity:1" fill="#ef8652" d="M 178.5,436.5 C 194.598,441.506 211.265,445.839 228.5,449.5C 231.698,451.289 235.031,452.789 238.5,454C 250.369,456.522 262.369,457.689 274.5,457.5C 282.178,458.042 289.845,458.709 297.5,459.5C 302.389,458.914 307.223,458.248 312,457.5C 318.747,457.987 325.58,457.987 332.5,457.5C 332.5,458.167 332.5,458.833 332.5,459.5C 306.031,462.2 279.364,461.867 252.5,458.5C 251.106,458.621 249.772,458.954 248.5,459.5C 248.167,458.833 247.833,458.167 247.5,457.5C 245.604,457.336 243.604,457.669 241.5,458.5C 220.206,454.59 199.206,449.923 178.5,444.5C 178.5,441.833 178.5,439.167 178.5,436.5 Z"/></g>
<g><path style="opacity:1" fill="#f39549" d="M 265.5,450.5 C 270.014,450.072 274.514,450.739 279,452.5C 291.09,452.269 303.09,452.269 315,452.5C 320.796,451.537 326.629,450.87 332.5,450.5C 332.5,452.833 332.5,455.167 332.5,457.5C 325.58,457.987 318.747,457.987 312,457.5C 307.223,458.248 302.389,458.914 297.5,459.5C 289.845,458.709 282.178,458.042 274.5,457.5C 271.765,456.057 268.765,455.057 265.5,454.5C 258.612,454.271 251.945,452.438 245.5,449C 252.067,449.457 258.733,449.957 265.5,450.5 Z"/></g>
<g><path style="opacity:1" fill="#ed855d" d="M 178.5,444.5 C 199.206,449.923 220.206,454.59 241.5,458.5C 243.604,457.669 245.604,457.336 247.5,457.5C 247.833,458.167 248.167,458.833 248.5,459.5C 249.772,458.954 251.106,458.621 252.5,458.5C 279.364,461.867 306.031,462.2 332.5,459.5C 332.5,461.5 332.5,463.5 332.5,465.5C 328.996,466.13 325.496,466.797 322,467.5C 321.586,467.043 321.086,466.709 320.5,466.5C 304.737,468.118 289.07,468.284 273.5,467C 240.66,463.836 208.993,458.003 178.5,449.5C 178.5,447.833 178.5,446.167 178.5,444.5 Z"/></g>
<g><path style="opacity:1" fill="#ea7f6e" d="M 178.5,449.5 C 208.993,458.003 240.66,463.836 273.5,467C 289.07,468.284 304.737,468.118 320.5,466.5C 321.086,466.709 321.586,467.043 322,467.5C 325.496,466.797 328.996,466.13 332.5,465.5C 332.5,467.5 332.5,469.5 332.5,471.5C 301.185,474.601 269.852,474.101 238.5,470C 237.069,469.535 235.903,468.701 235,467.5C 216.19,466.041 197.357,462.374 178.5,456.5C 178.5,454.167 178.5,451.833 178.5,449.5 Z"/></g>
<g><path style="opacity:1" fill="#816fd1" d="M 177.5,400.5 C 177.833,400.5 178.167,400.5 178.5,400.5C 178.5,412.5 178.5,424.5 178.5,436.5C 178.5,439.167 178.5,441.833 178.5,444.5C 178.5,446.167 178.5,447.833 178.5,449.5C 178.5,451.833 178.5,454.167 178.5,456.5C 178.5,459.5 178.5,462.5 178.5,465.5C 178.5,466.167 178.5,466.833 178.5,467.5C 178.5,470.5 178.5,473.5 178.5,476.5C 175.848,476.59 173.515,475.924 171.5,474.5C 173.262,474.357 174.929,474.691 176.5,475.5C 177.5,454.511 177.833,433.511 177.5,412.5C 177.5,408.5 177.5,404.5 177.5,400.5 Z"/></g>
<g><path style="opacity:1" fill="#e87986" d="M 178.5,456.5 C 197.357,462.374 216.19,466.041 235,467.5C 235.903,468.701 237.069,469.535 238.5,470C 269.852,474.101 301.185,474.601 332.5,471.5C 332.216,473.415 332.549,475.081 333.5,476.5C 331.786,477.738 329.786,478.405 327.5,478.5C 307.526,478.411 287.193,478.244 266.5,478C 261.914,477.803 257.414,477.303 253,476.5C 252.439,477.022 251.772,477.355 251,477.5C 226.777,473.868 202.61,469.868 178.5,465.5C 178.5,462.5 178.5,459.5 178.5,456.5 Z"/></g>
<g><path style="opacity:1" fill="#e77699" d="M 178.5,465.5 C 202.61,469.868 226.777,473.868 251,477.5C 251.772,477.355 252.439,477.022 253,476.5C 257.414,477.303 261.914,477.803 266.5,478C 287.193,478.244 307.526,478.411 327.5,478.5C 315.783,482.11 303.783,484.443 291.5,485.5C 292.952,484.698 294.618,484.198 296.5,484C 279.796,483.586 263.129,482.586 246.5,481C 223.594,477.682 200.928,473.182 178.5,467.5C 178.5,466.833 178.5,466.167 178.5,465.5 Z"/></g>
<g><path style="opacity:1" fill="#e672a8" d="M 178.5,467.5 C 200.928,473.182 223.594,477.682 246.5,481C 263.129,482.586 279.796,483.586 296.5,484C 294.618,484.198 292.952,484.698 291.5,485.5C 261.732,488.719 232.065,487.885 202.5,483C 194.13,481.743 186.13,479.577 178.5,476.5C 178.5,473.5 178.5,470.5 178.5,467.5 Z"/></g>
</svg>
